<?xml version="1.0" standalone="no"?><!DOCTYPE svg PUBLIC "-//W3C//DTD SVG 1.1//EN" "http://www.w3.org/Graphics/SVG/1.1/DTD/svg11.dtd"><svg t="1560036670833" class="icon" style="" viewBox="0 0 1024 1024" version="1.1" xmlns="http://www.w3.org/2000/svg" p-id="3893" xmlns:xlink="http://www.w3.org/1999/xlink" width="128" height="128"><defs><style type="text/css"></style></defs><path d="M512.004 545.926m-460.994 0a460.994 460.994 0 1 0 921.988 0 460.994 460.994 0 1 0-921.988 0Z" fill="#F7B239" p-id="3894"></path><path d="M269.8 788.124c-165.834-165.832-178.9-426.578-39.212-607.378a464.902 464.902 0 0 0-44.554 39.214c-180.026 180.026-180.026 471.908 0 651.932s471.908 180.026 651.932 0a465.698 465.698 0 0 0 39.214-44.554c-180.8 139.688-441.544 126.62-607.38-39.214z" fill="#E09B2D" p-id="3895"></path><path d="M511.998 1024C248.39 1024 33.926 809.536 33.926 545.926S248.39 67.854 511.998 67.854c263.61 0 478.074 214.464 478.074 478.074S775.61 1024 511.998 1024z m0-921.972c-244.766 0-443.898 199.134-443.898 443.902s199.134 443.898 443.898 443.898c244.768 0 443.902-199.134 443.902-443.902S756.766 102.028 511.998 102.028z" fill="" p-id="3896"></path><path d="M404.916 515.438a17.082 17.082 0 0 1-14.686-8.324c-15.434-25.834-42.618-41.26-72.714-41.26-30.096 0-57.278 15.426-72.714 41.26a17.088 17.088 0 0 1-29.338-17.526c21.664-36.26 59.812-57.906 102.05-57.906s80.386 21.648 102.05 57.906a17.084 17.084 0 0 1-14.648 25.85zM793.878 515.438a17.08 17.08 0 0 1-14.684-8.324c-15.434-25.834-42.618-41.26-72.716-41.26-30.096 0-57.276 15.426-72.712 41.26a17.088 17.088 0 0 1-29.338-17.526c21.664-36.258 59.812-57.906 102.048-57.906 42.238 0 80.386 21.648 102.052 57.906a17.088 17.088 0 0 1-14.65 25.85zM511.998 766.822c-96.674 0-187.562-37.648-255.92-106.008a17.086 17.086 0 0 1 0-24.162c6.672-6.672 17.492-6.676 24.162 0 61.904 61.904 144.21 95.996 231.758 95.996s169.854-34.094 231.758-95.996a17.084 17.084 0 0 1 24.164 0c6.67 6.672 6.672 17.492 0 24.162-68.358 68.362-159.248 106.008-255.922 106.008z" fill="" p-id="3897"></path><path d="M512.002 832.938a303.3 303.3 0 0 1-81.89-11.264 17.086 17.086 0 1 1 9.224-32.904 269.1 269.1 0 0 0 145.332 0c9.092-2.54 18.518 2.754 21.064 11.84a17.086 17.086 0 0 1-11.84 21.064 303.344 303.344 0 0 1-81.89 11.264z" fill="#E09B2D" p-id="3898"></path><path d="M522.26 216.43c-97.22 0-188.822-9.666-257.926-27.216-78.284-19.882-117.976-47.134-117.976-81s39.694-61.118 117.976-81C333.44 9.666 425.04 0 522.26 0c97.222 0 188.822 9.666 257.926 27.216 78.284 19.882 117.976 47.134 117.976 81s-39.694 61.118-117.976 81c-69.104 17.546-160.706 27.214-257.926 27.214z m0-182.256c-94.466 0-183.078 9.292-249.516 26.166-72.942 18.524-92.214 39.418-92.214 47.876s19.272 29.352 92.214 47.876c66.436 16.872 155.05 26.166 249.516 26.166s183.078-9.292 249.516-26.166c72.942-18.524 92.214-39.418 92.214-47.876 0-8.458-19.274-29.352-92.214-47.876-66.436-16.874-155.05-26.166-249.516-26.166z" fill="#2197D8" p-id="3899"></path></svg>